# xmcd
#
# Track frame offsets:
#	150
#	24862
#	30784
#	42032
#	52533
#	65131
#	75406
#	89479
#	100682
#	110876
#	126722
#	149192
#	166433
#	177980
#	200477
#	219307
#
# Disc length: 3167 seconds
#
# Revision: 1
# Processed by: cddbd v1.4PL0 Copyright (c) Steve Scherf et al.
# Submitted via: audiograbber 1.80
#
DISCID=db0c5d10
DTITLE=Eric Clapton - Jimmy Page and Albert Lee
DYEAR=1900
DGENRE=
TTITLE0=Respectable
TTITLE1=Choker
TTITLE2=Snake Drive
TTITLE3=Got To Hurry
TTITLE4=Freightloader
TTITLE5=A Certain Girl
TTITLE6=Draggin' My Tail
TTITLE7=For Your Love
TTITLE8=I Whish You Would
TTITLE9=Louise
TTITLE10=Five Long Years
TTITLE11=Early In The Morning
TTITLE12=Pounds And Stomps
TTITLE13=First Time I Met The Blues
TTITLE14=Stormy Monday
TTITLE15=Big Boss Man
EXTD=DB entry by o_holzer
EXTT0=
EXTT1=
EXTT2=
EXTT3=
EXTT4=
EXTT5=
EXTT6=
EXTT7=
EXTT8=
EXTT9=
EXTT10=
EXTT11=
EXTT12=
EXTT13=
EXTT14=
EXTT15=
PLAYORDER=
